solid OpenSCAD_Model
  facet normal -1 0 0
    outer loop
      vertex -10.75 -5.75 0
      vertex -10.75 5.75 15
      vertex -10.75 5.75 0
    endloop
  endfacet
  facet normal -1 -0 0
    outer loop
      vertex -10.75 5.75 15
      vertex -10.75 -5.75 0
      vertex -10.75 -5.75 15
    endloop
  endfacet
  facet normal -0.770515 0.637422 0
    outer loop
      vertex -9.79508 8.68893 0
      vertex -9.39484 9.17274 15
      vertex -9.39484 9.17274 0
    endloop
  endfacet
  facet normal -0.770515 0.637422 0
    outer loop
      vertex -9.39484 9.17274 15
      vertex -9.79508 8.68893 0
      vertex -9.79508 8.68893 15
    endloop
  endfacet
  facet normal 0 0 1
    outer loop
      vertex 2.36915 2.22478 15
      vertex 10.75 5.75 15
      vertex 10.7106 6.37667 15
    endloop
  endfacet
  facet normal 0 0 1
    outer loop
      vertex 10.75 5.75 15
      vertex 3.25 0 15
      vertex 10.75 -5.75 15
    endloop
  endfacet
  facet normal 0 0 1
    outer loop
      vertex 2.36915 2.22478 15
      vertex 10.7106 6.37667 15
      vertex 10.5929 6.99345 15
    endloop
  endfacet
  facet normal -0 0 1
    outer loop
      vertex 3.22437 -0.407332 15
      vertex 10.75 -5.75 15
      vertex 3.25 0 15
    endloop
  endfacet
  facet normal 0 0 1
    outer loop
      vertex 2.36915 2.22478 15
      vertex 10.5929 6.99345 15
      vertex 10.3989 7.59062 15
    endloop
  endfacet
  facet normal -0 0 1
    outer loop
      vertex 3.14789 -0.808242 15
      vertex 10.75 -5.75 15
      vertex 3.22437 -0.407332 15
    endloop
  endfacet
  facet normal 0 0 1
    outer loop
      vertex 2.36915 2.22478 15
      vertex 10.3989 7.59062 15
      vertex 10.1315 8.15877 15
    endloop
  endfacet
  facet normal -0 0 1
    outer loop
      vertex 3.02177 -1.1964 15
      vertex 10.75 -5.75 15
      vertex 3.14789 -0.808242 15
    endloop
  endfacet
  facet normal 0 0 1
    outer loop
      vertex 2.36915 2.22478 15
      vertex 10.1315 8.15877 15
      vertex 9.79508 8.68893 15
    endloop
  endfacet
  facet normal -0 0 1
    outer loop
      vertex 2.848 -1.5657 15
      vertex 10.75 -5.75 15
      vertex 3.02177 -1.1964 15
    endloop
  endfacet
  facet normal 0 0 1
    outer loop
      vertex 2.36915 2.22478 15
      vertex 9.79508 8.68893 15
      vertex 9.39484 9.17274 15
    endloop
  endfacet
  facet normal -0 0 1
    outer loop
      vertex 2.6293 -1.9103 15
      vertex 10.75 -5.75 15
      vertex 2.848 -1.5657 15
    endloop
  endfacet
  facet normal 0 0 1
    outer loop
      vertex 2.36915 2.22478 15
      vertex 9.39484 9.17274 15
      vertex 8.93712 9.60257 15
    endloop
  endfacet
  facet normal -0 0 1
    outer loop
      vertex 2.36915 -2.22478 15
      vertex 10.75 -5.75 15
      vertex 2.6293 -1.9103 15
    endloop
  endfacet
  facet normal 0 0 1
    outer loop
      vertex 2.36915 2.22478 15
      vertex 8.93712 9.60257 15
      vertex 8.42913 9.97164 15
    endloop
  endfacet
  facet normal 0 0 1
    outer loop
      vertex 10.75 -5.75 15
      vertex 2.36915 -2.22478 15
      vertex 10.7106 -6.37667 15
    endloop
  endfacet
  facet normal 0 0 1
    outer loop
      vertex 2.36915 2.22478 15
      vertex 8.42913 9.97164 15
      vertex 7.8789 10.2741 15
    endloop
  endfacet
  facet normal 0 0 1
    outer loop
      vertex 10.7106 -6.37667 15
      vertex 2.36915 -2.22478 15
      vertex 10.5929 -6.99345 15
    endloop
  endfacet
  facet normal 0 0 1
    outer loop
      vertex 2.36915 2.22478 15
      vertex 7.8789 10.2741 15
      vertex 7.29508 10.5053 15
    endloop
  endfacet
  facet normal 0 0 1
    outer loop
      vertex 10.5929 -6.99345 15
      vertex 2.36915 -2.22478 15
      vertex 10.3989 -7.59062 15
    endloop
  endfacet
  facet normal 0 0 1
    outer loop
      vertex 2.36915 2.22478 15
      vertex 7.29508 10.5053 15
      vertex 6.68691 10.6614 15
    endloop
  endfacet
  facet normal 0 0 1
    outer loop
      vertex 10.3989 -7.59062 15
      vertex 2.36915 -2.22478 15
      vertex 10.1315 -8.15877 15
    endloop
  endfacet
  facet normal 0 0 1
    outer loop
      vertex 2.36915 2.22478 15
      vertex 6.68691 10.6614 15
      vertex 6.06395 10.7401 15
    endloop
  endfacet
  facet normal 0 0 1
    outer loop
      vertex 10.1315 -8.15877 15
      vertex 2.36915 -2.22478 15
      vertex 9.79508 -8.68893 15
    endloop
  endfacet
  facet normal 0 0 1
    outer loop
      vertex 9.79508 -8.68893 15
      vertex 2.36915 -2.22478 15
      vertex 9.39484 -9.17274 15
    endloop
  endfacet
  facet normal 0 0 1
    outer loop
      vertex 10.75 5.75 15
      vertex 3.22437 0.407332 15
      vertex 3.25 0 15
    endloop
  endfacet
  facet normal 0 0 1
    outer loop
      vertex 10.75 5.75 15
      vertex 3.14789 0.808242 15
      vertex 3.22437 0.407332 15
    endloop
  endfacet
  facet normal 0 0 1
    outer loop
      vertex 10.75 5.75 15
      vertex 3.02177 1.1964 15
      vertex 3.14789 0.808242 15
    endloop
  endfacet
  facet normal 0 0 1
    outer loop
      vertex 10.75 5.75 15
      vertex 2.848 1.5657 15
      vertex 3.02177 1.1964 15
    endloop
  endfacet
  facet normal 0 0 1
    outer loop
      vertex 10.75 5.75 15
      vertex 2.6293 1.9103 15
      vertex 2.848 1.5657 15
    endloop
  endfacet
  facet normal 0 0 1
    outer loop
      vertex 10.75 5.75 15
      vertex 2.36915 2.22478 15
      vertex 2.6293 1.9103 15
    endloop
  endfacet
  facet normal 0 0 1
    outer loop
      vertex 6.06395 10.7401 15
      vertex 2.07163 2.50417 15
      vertex 2.36915 2.22478 15
    endloop
  endfacet
  facet normal 0 0 1
    outer loop
      vertex 6.06395 10.7401 15
      vertex 1.74144 2.74407 15
      vertex 2.07163 2.50417 15
    endloop
  endfacet
  facet normal 0 0 1
    outer loop
      vertex 6.06395 10.7401 15
      vertex 1.38378 2.94069 15
      vertex 1.74144 2.74407 15
    endloop
  endfacet
  facet normal 0 0 1
    outer loop
      vertex 6.06395 10.7401 15
      vertex 1.0043 3.09093 15
      vertex 1.38378 2.94069 15
    endloop
  endfacet
  facet normal 0 0 1
    outer loop
      vertex 6.06395 10.7401 15
      vertex 0.608989 3.19243 15
      vertex 1.0043 3.09093 15
    endloop
  endfacet
  facet normal 0 0 1
    outer loop
      vertex 6.06395 10.7401 15
      vertex 0.204069 3.24359 15
      vertex 0.608989 3.19243 15
    endloop
  endfacet
  facet normal 0 0 1
    outer loop
      vertex 6.06395 10.7401 15
      vertex -0.204069 3.24359 15
      vertex 0.204069 3.24359 15
    endloop
  endfacet
  facet normal -0 0 1
    outer loop
      vertex -6.06395 10.7401 15
      vertex -0.204069 3.24359 15
      vertex 6.06395 10.7401 15
    endloop
  endfacet
  facet normal 0 0 1
    outer loop
      vertex -0.204069 3.24359 15
      vertex -6.06395 10.7401 15
      vertex -0.608989 3.19243 15
    endloop
  endfacet
  facet normal 0 0 1
    outer loop
      vertex -0.608989 3.19243 15
      vertex -6.06395 10.7401 15
      vertex -1.0043 3.09093 15
    endloop
  endfacet
  facet normal 0 0 1
    outer loop
      vertex -1.0043 3.09093 15
      vertex -6.06395 10.7401 15
      vertex -1.38378 2.94069 15
    endloop
  endfacet
  facet normal 0 0 1
    outer loop
      vertex -1.38378 2.94069 15
      vertex -6.06395 10.7401 15
      vertex -1.74144 2.74407 15
    endloop
  endfacet
  facet normal 0 0 1
    outer loop
      vertex -1.74144 2.74407 15
      vertex -6.06395 10.7401 15
      vertex -2.07163 2.50417 15
    endloop
  endfacet
  facet normal 0 0 1
    outer loop
      vertex -3.14789 0.808242 15
      vertex -10.75 5.75 15
      vertex -3.22437 0.407332 15
    endloop
  endfacet
  facet normal 0 0 1
    outer loop
      vertex -3.02177 1.1964 15
      vertex -10.75 5.75 15
      vertex -3.14789 0.808242 15
    endloop
  endfacet
  facet normal 0 0 1
    outer loop
      vertex -2.848 1.5657 15
      vertex -10.75 5.75 15
      vertex -3.02177 1.1964 15
    endloop
  endfacet
  facet normal 0 0 1
    outer loop
      vertex -2.6293 1.9103 15
      vertex -10.75 5.75 15
      vertex -2.848 1.5657 15
    endloop
  endfacet
  facet normal 0 0 1
    outer loop
      vertex -2.36915 2.22478 15
      vertex -10.75 5.75 15
      vertex -2.6293 1.9103 15
    endloop
  endfacet
  facet normal -0 0 1
    outer loop
      vertex -10.75 5.75 15
      vertex -2.36915 2.22478 15
      vertex -6.06395 10.7401 15
    endloop
  endfacet
  facet normal 0 0 1
    outer loop
      vertex -2.07163 2.50417 15
      vertex -6.06395 10.7401 15
      vertex -2.36915 2.22478 15
    endloop
  endfacet
  facet normal 0 0 1
    outer loop
      vertex 9.39484 -9.17274 15
      vertex 2.36915 -2.22478 15
      vertex 8.93712 -9.60257 15
    endloop
  endfacet
  facet normal 0 0 1
    outer loop
      vertex 8.93712 -9.60257 15
      vertex 2.36915 -2.22478 15
      vertex 8.42913 -9.97164 15
    endloop
  endfacet
  facet normal 0 0 1
    outer loop
      vertex 8.42913 -9.97164 15
      vertex 2.36915 -2.22478 15
      vertex 7.8789 -10.2741 15
    endloop
  endfacet
  facet normal 0 0 1
    outer loop
      vertex 7.8789 -10.2741 15
      vertex 2.36915 -2.22478 15
      vertex 7.29508 -10.5053 15
    endloop
  endfacet
  facet normal 0 0 1
    outer loop
      vertex 7.29508 -10.5053 15
      vertex 2.36915 -2.22478 15
      vertex 6.68691 -10.6614 15
    endloop
  endfacet
  facet normal 0 0 1
    outer loop
      vertex 6.68691 -10.6614 15
      vertex 2.36915 -2.22478 15
      vertex 6.06395 -10.7401 15
    endloop
  endfacet
  facet normal -0 0 1
    outer loop
      vertex 2.07163 -2.50417 15
      vertex 6.06395 -10.7401 15
      vertex 2.36915 -2.22478 15
    endloop
  endfacet
  facet normal -0 0 1
    outer loop
      vertex 1.74144 -2.74407 15
      vertex 6.06395 -10.7401 15
      vertex 2.07163 -2.50417 15
    endloop
  endfacet
  facet normal -0 0 1
    outer loop
      vertex 1.38378 -2.94069 15
      vertex 6.06395 -10.7401 15
      vertex 1.74144 -2.74407 15
    endloop
  endfacet
  facet normal -0 0 1
    outer loop
      vertex 1.0043 -3.09093 15
      vertex 6.06395 -10.7401 15
      vertex 1.38378 -2.94069 15
    endloop
  endfacet
  facet normal -0 0 1
    outer loop
      vertex 0.608989 -3.19243 15
      vertex 6.06395 -10.7401 15
      vertex 1.0043 -3.09093 15
    endloop
  endfacet
  facet normal -0 0 1
    outer loop
      vertex 0.204069 -3.24359 15
      vertex 6.06395 -10.7401 15
      vertex 0.608989 -3.19243 15
    endloop
  endfacet
  facet normal -0 0 1
    outer loop
      vertex -0.204069 -3.24359 15
      vertex 6.06395 -10.7401 15
      vertex 0.204069 -3.24359 15
    endloop
  endfacet
  facet normal 0 0 1
    outer loop
      vertex -6.06395 -10.7401 15
      vertex -0.204069 -3.24359 15
      vertex -0.608989 -3.19243 15
    endloop
  endfacet
  facet normal 0 0 1
    outer loop
      vertex -6.06395 -10.7401 15
      vertex -0.608989 -3.19243 15
      vertex -1.0043 -3.09093 15
    endloop
  endfacet
  facet normal 0 0 1
    outer loop
      vertex -6.06395 -10.7401 15
      vertex -1.0043 -3.09093 15
      vertex -1.38378 -2.94069 15
    endloop
  endfacet
  facet normal 0 0 1
    outer loop
      vertex -6.06395 -10.7401 15
      vertex -1.38378 -2.94069 15
      vertex -1.74144 -2.74407 15
    endloop
  endfacet
  facet normal 0 0 1
    outer loop
      vertex -6.06395 -10.7401 15
      vertex -1.74144 -2.74407 15
      vertex -2.07163 -2.50417 15
    endloop
  endfacet
  facet normal 0 0 1
    outer loop
      vertex -6.06395 -10.7401 15
      vertex -2.07163 -2.50417 15
      vertex -2.36915 -2.22478 15
    endloop
  endfacet
  facet normal 0 0 1
    outer loop
      vertex -3.22437 0.407332 15
      vertex -10.75 5.75 15
      vertex -3.25 0 15
    endloop
  endfacet
  facet normal 0 0 1
    outer loop
      vertex -10.75 -5.75 15
      vertex -3.25 0 15
      vertex -10.75 5.75 15
    endloop
  endfacet
  facet normal 0 0 1
    outer loop
      vertex -0.204069 -3.24359 15
      vertex -6.06395 -10.7401 15
      vertex 6.06395 -10.7401 15
    endloop
  endfacet
  facet normal 0 0 1
    outer loop
      vertex -10.75 -5.75 15
      vertex -2.36915 -2.22478 15
      vertex -2.6293 -1.9103 15
    endloop
  endfacet
  facet normal 0 0 1
    outer loop
      vertex -10.75 -5.75 15
      vertex -2.6293 -1.9103 15
      vertex -2.848 -1.5657 15
    endloop
  endfacet
  facet normal 0 0 1
    outer loop
      vertex -10.75 -5.75 15
      vertex -2.848 -1.5657 15
      vertex -3.02177 -1.1964 15
    endloop
  endfacet
  facet normal 0 0 1
    outer loop
      vertex -10.75 -5.75 15
      vertex -3.02177 -1.1964 15
      vertex -3.14789 -0.808242 15
    endloop
  endfacet
  facet normal 0 0 1
    outer loop
      vertex -3.25 0 15
      vertex -10.75 -5.75 15
      vertex -3.22437 -0.407332 15
    endloop
  endfacet
  facet normal 0 0 1
    outer loop
      vertex -10.75 5.75 15
      vertex -6.06395 10.7401 15
      vertex -6.68691 10.6614 15
    endloop
  endfacet
  facet normal 0 0 1
    outer loop
      vertex -3.22437 -0.407332 15
      vertex -10.75 -5.75 15
      vertex -3.14789 -0.808242 15
    endloop
  endfacet
  facet normal 0 0 1
    outer loop
      vertex -10.75 5.75 15
      vertex -6.68691 10.6614 15
      vertex -7.29508 10.5053 15
    endloop
  endfacet
  facet normal 0 0 1
    outer loop
      vertex -2.36915 -2.22478 15
      vertex -10.75 -5.75 15
      vertex -6.06395 -10.7401 15
    endloop
  endfacet
  facet normal 0 0 1
    outer loop
      vertex -10.75 5.75 15
      vertex -7.29508 10.5053 15
      vertex -7.8789 10.2741 15
    endloop
  endfacet
  facet normal 0 0 1
    outer loop
      vertex -6.06395 -10.7401 15
      vertex -10.75 -5.75 15
      vertex -6.68691 -10.6614 15
    endloop
  endfacet
  facet normal 0 0 1
    outer loop
      vertex -10.75 5.75 15
      vertex -7.8789 10.2741 15
      vertex -8.42913 9.97164 15
    endloop
  endfacet
  facet normal 0 0 1
    outer loop
      vertex -6.68691 -10.6614 15
      vertex -10.75 -5.75 15
      vertex -7.29508 -10.5053 15
    endloop
  endfacet
  facet normal 0 0 1
    outer loop
      vertex -10.75 5.75 15
      vertex -8.42913 9.97164 15
      vertex -8.93712 9.60257 15
    endloop
  endfacet
  facet normal 0 0 1
    outer loop
      vertex -7.29508 -10.5053 15
      vertex -10.75 -5.75 15
      vertex -7.8789 -10.2741 15
    endloop
  endfacet
  facet normal 0 0 1
    outer loop
      vertex -10.75 5.75 15
      vertex -8.93712 9.60257 15
      vertex -9.39484 9.17274 15
    endloop
  endfacet
  facet normal 0 0 1
    outer loop
      vertex -7.8789 -10.2741 15
      vertex -10.75 -5.75 15
      vertex -8.42913 -9.97164 15
    endloop
  endfacet
  facet normal 0 0 1
    outer loop
      vertex -10.75 5.75 15
      vertex -9.39484 9.17274 15
      vertex -9.79508 8.68893 15
    endloop
  endfacet
  facet normal 0 0 1
    outer loop
      vertex -8.42913 -9.97164 15
      vertex -10.75 -5.75 15
      vertex -8.93712 -9.60257 15
    endloop
  endfacet
  facet normal 0 0 1
    outer loop
      vertex -10.75 5.75 15
      vertex -9.79508 8.68893 15
      vertex -10.1315 8.15877 15
    endloop
  endfacet
  facet normal 0 0 1
    outer loop
      vertex -8.93712 -9.60257 15
      vertex -10.75 -5.75 15
      vertex -9.39484 -9.17274 15
    endloop
  endfacet
  facet normal 0 0 1
    outer loop
      vertex -10.75 5.75 15
      vertex -10.1315 8.15877 15
      vertex -10.3989 7.59062 15
    endloop
  endfacet
  facet normal 0 0 1
    outer loop
      vertex -9.39484 -9.17274 15
      vertex -10.75 -5.75 15
      vertex -9.79508 -8.68893 15
    endloop
  endfacet
  facet normal 0 0 1
    outer loop
      vertex -10.75 5.75 15
      vertex -10.3989 7.59062 15
      vertex -10.5929 6.99345 15
    endloop
  endfacet
  facet normal 0 0 1
    outer loop
      vertex -9.79508 -8.68893 15
      vertex -10.75 -5.75 15
      vertex -10.1315 -8.15877 15
    endloop
  endfacet
  facet normal 0 0 1
    outer loop
      vertex -10.75 5.75 15
      vertex -10.5929 6.99345 15
      vertex -10.7106 6.37667 15
    endloop
  endfacet
  facet normal 0 0 1
    outer loop
      vertex -10.1315 -8.15877 15
      vertex -10.75 -5.75 15
      vertex -10.3989 -7.59062 15
    endloop
  endfacet
  facet normal 0 0 1
    outer loop
      vertex -10.3989 -7.59062 15
      vertex -10.75 -5.75 15
      vertex -10.5929 -6.99345 15
    endloop
  endfacet
  facet normal 0 0 1
    outer loop
      vertex -10.5929 -6.99345 15
      vertex -10.75 -5.75 15
      vertex -10.7106 -6.37667 15
    endloop
  endfacet
  facet normal -0.684549 -0.728967 0
    outer loop
      vertex -9.39484 -9.17274 0
      vertex -8.93712 -9.60257 15
      vertex -9.39484 -9.17274 15
    endloop
  endfacet
  facet normal -0.684549 -0.728967 -0
    outer loop
      vertex -8.93712 -9.60257 15
      vertex -9.39484 -9.17274 0
      vertex -8.93712 -9.60257 0
    endloop
  endfacet
  facet normal 1 -0 0
    outer loop
      vertex 10.75 -5.75 15
      vertex 10.75 5.75 0
      vertex 10.75 5.75 15
    endloop
  endfacet
  facet normal 1 0 0
    outer loop
      vertex 10.75 5.75 0
      vertex 10.75 -5.75 15
      vertex 10.75 -5.75 0
    endloop
  endfacet
  facet normal 0.998029 -0.0627481 0
    outer loop
      vertex 10.7106 -6.37667 15
      vertex 10.75 -5.75 0
      vertex 10.75 -5.75 15
    endloop
  endfacet
  facet normal 0.998029 -0.0627481 0
    outer loop
      vertex 10.75 -5.75 0
      vertex 10.7106 -6.37667 15
      vertex 10.7106 -6.37667 0
    endloop
  endfacet
  facet normal 0.481715 -0.876328 0
    outer loop
      vertex 7.8789 -10.2741 0
      vertex 8.42913 -9.97164 15
      vertex 7.8789 -10.2741 15
    endloop
  endfacet
  facet normal 0.481715 -0.876328 0
    outer loop
      vertex 8.42913 -9.97164 15
      vertex 7.8789 -10.2741 0
      vertex 8.42913 -9.97164 0
    endloop
  endfacet
  facet normal 0.368192 0.92975 -0
    outer loop
      vertex 7.8789 10.2741 0
      vertex 7.29508 10.5053 15
      vertex 7.8789 10.2741 15
    endloop
  endfacet
  facet normal 0.368192 0.92975 0
    outer loop
      vertex 7.29508 10.5053 15
      vertex 7.8789 10.2741 0
      vertex 7.29508 10.5053 0
    endloop
  endfacet
  facet normal 0.248613 0.968603 -0
    outer loop
      vertex 7.29508 10.5053 0
      vertex 6.68691 10.6614 15
      vertex 7.29508 10.5053 15
    endloop
  endfacet
  facet normal 0.248613 0.968603 0
    outer loop
      vertex 6.68691 10.6614 15
      vertex 7.29508 10.5053 0
      vertex 6.68691 10.6614 0
    endloop
  endfacet
  facet normal 0 1 -0
    outer loop
      vertex 6.06395 10.7401 0
      vertex -6.06395 10.7401 15
      vertex 6.06395 10.7401 15
    endloop
  endfacet
  facet normal 0 1 0
    outer loop
      vertex -6.06395 10.7401 15
      vertex 6.06395 10.7401 0
      vertex -6.06395 10.7401 0
    endloop
  endfacet
  facet normal -0.951072 -0.30897 0
    outer loop
      vertex -10.3989 -7.59062 0
      vertex -10.5929 -6.99345 15
      vertex -10.5929 -6.99345 0
    endloop
  endfacet
  facet normal -0.951072 -0.30897 0
    outer loop
      vertex -10.5929 -6.99345 15
      vertex -10.3989 -7.59062 0
      vertex -10.3989 -7.59062 15
    endloop
  endfacet
  facet normal 0 -1 0
    outer loop
      vertex -6.06395 -10.7401 0
      vertex 6.06395 -10.7401 15
      vertex -6.06395 -10.7401 15
    endloop
  endfacet
  facet normal 0 -1 -0
    outer loop
      vertex 6.06395 -10.7401 15
      vertex -6.06395 -10.7401 0
      vertex 6.06395 -10.7401 0
    endloop
  endfacet
  facet normal 0.951072 -0.30897 0
    outer loop
      vertex 10.3989 -7.59062 15
      vertex 10.5929 -6.99345 0
      vertex 10.5929 -6.99345 15
    endloop
  endfacet
  facet normal 0.951072 -0.30897 0
    outer loop
      vertex 10.5929 -6.99345 0
      vertex 10.3989 -7.59062 15
      vertex 10.3989 -7.59062 0
    endloop
  endfacet
  facet normal 0.951072 0.30897 0
    outer loop
      vertex 10.5929 6.99345 15
      vertex 10.3989 7.59062 0
      vertex 10.3989 7.59062 15
    endloop
  endfacet
  facet normal 0.951072 0.30897 0
    outer loop
      vertex 10.3989 7.59062 0
      vertex 10.5929 6.99345 15
      vertex 10.5929 6.99345 0
    endloop
  endfacet
  facet normal 0.684549 0.728967 -0
    outer loop
      vertex 9.39484 9.17274 0
      vertex 8.93712 9.60257 15
      vertex 9.39484 9.17274 15
    endloop
  endfacet
  facet normal 0.684549 0.728967 0
    outer loop
      vertex 8.93712 9.60257 15
      vertex 9.39484 9.17274 0
      vertex 8.93712 9.60257 0
    endloop
  endfacet
  facet normal 0.125336 0.992114 -0
    outer loop
      vertex 6.68691 10.6614 0
      vertex 6.06395 10.7401 15
      vertex 6.68691 10.6614 15
    endloop
  endfacet
  facet normal 0.125336 0.992114 0
    outer loop
      vertex 6.06395 10.7401 15
      vertex 6.68691 10.6614 0
      vertex 6.06395 10.7401 0
    endloop
  endfacet
  facet normal -0.587779 0.809022 0
    outer loop
      vertex -8.42913 9.97164 0
      vertex -8.93712 9.60257 15
      vertex -8.42913 9.97164 15
    endloop
  endfacet
  facet normal -0.587779 0.809022 0
    outer loop
      vertex -8.93712 9.60257 15
      vertex -8.42913 9.97164 0
      vertex -8.93712 9.60257 0
    endloop
  endfacet
  facet normal -0.368192 0.92975 0
    outer loop
      vertex -7.29508 10.5053 0
      vertex -7.8789 10.2741 15
      vertex -7.29508 10.5053 15
    endloop
  endfacet
  facet normal -0.368192 0.92975 0
    outer loop
      vertex -7.8789 10.2741 15
      vertex -7.29508 10.5053 0
      vertex -7.8789 10.2741 0
    endloop
  endfacet
  facet normal -0.951072 0.30897 0
    outer loop
      vertex -10.5929 6.99345 0
      vertex -10.3989 7.59062 15
      vertex -10.3989 7.59062 0
    endloop
  endfacet
  facet normal -0.951072 0.30897 0
    outer loop
      vertex -10.3989 7.59062 15
      vertex -10.5929 6.99345 0
      vertex -10.5929 6.99345 15
    endloop
  endfacet
  facet normal -0.998029 -0.0627481 0
    outer loop
      vertex -10.7106 -6.37667 0
      vertex -10.75 -5.75 15
      vertex -10.75 -5.75 0
    endloop
  endfacet
  facet normal -0.998029 -0.0627481 0
    outer loop
      vertex -10.75 -5.75 15
      vertex -10.7106 -6.37667 0
      vertex -10.7106 -6.37667 15
    endloop
  endfacet
  facet normal 0 0 -1
    outer loop
      vertex 6.06395 -10.7401 0
      vertex 10.75 -5.75 0
      vertex 10.7106 -6.37667 0
    endloop
  endfacet
  facet normal 0 0 -1
    outer loop
      vertex -10.75 -5.75 0
      vertex 10.75 -5.75 0
      vertex 6.06395 -10.7401 0
    endloop
  endfacet
  facet normal 0 0 -1
    outer loop
      vertex 6.06395 -10.7401 0
      vertex 10.7106 -6.37667 0
      vertex 10.5929 -6.99345 0
    endloop
  endfacet
  facet normal 0 0 -1
    outer loop
      vertex 10.75 -5.75 0
      vertex -10.75 -5.75 0
      vertex 10.75 5.75 0
    endloop
  endfacet
  facet normal 0 0 -1
    outer loop
      vertex 6.06395 -10.7401 0
      vertex 10.5929 -6.99345 0
      vertex 10.3989 -7.59062 0
    endloop
  endfacet
  facet normal 0 0 -1
    outer loop
      vertex 10.75 5.75 0
      vertex 6.06395 10.7401 0
      vertex 10.7106 6.37667 0
    endloop
  endfacet
  facet normal 0 0 -1
    outer loop
      vertex 6.06395 -10.7401 0
      vertex 10.3989 -7.59062 0
      vertex 10.1315 -8.15877 0
    endloop
  endfacet
  facet normal 0 0 -1
    outer loop
      vertex 10.7106 6.37667 0
      vertex 6.06395 10.7401 0
      vertex 10.5929 6.99345 0
    endloop
  endfacet
  facet normal 0 0 -1
    outer loop
      vertex 6.06395 -10.7401 0
      vertex 10.1315 -8.15877 0
      vertex 9.79508 -8.68893 0
    endloop
  endfacet
  facet normal 0 0 -1
    outer loop
      vertex 10.5929 6.99345 0
      vertex 6.06395 10.7401 0
      vertex 10.3989 7.59062 0
    endloop
  endfacet
  facet normal 0 0 -1
    outer loop
      vertex 6.06395 -10.7401 0
      vertex 9.79508 -8.68893 0
      vertex 9.39484 -9.17274 0
    endloop
  endfacet
  facet normal 0 0 -1
    outer loop
      vertex 10.3989 7.59062 0
      vertex 6.06395 10.7401 0
      vertex 10.1315 8.15877 0
    endloop
  endfacet
  facet normal 0 0 -1
    outer loop
      vertex 6.06395 -10.7401 0
      vertex 9.39484 -9.17274 0
      vertex 8.93712 -9.60257 0
    endloop
  endfacet
  facet normal 0 0 -1
    outer loop
      vertex 10.1315 8.15877 0
      vertex 6.06395 10.7401 0
      vertex 9.79508 8.68893 0
    endloop
  endfacet
  facet normal 0 0 -1
    outer loop
      vertex 6.06395 -10.7401 0
      vertex 8.93712 -9.60257 0
      vertex 8.42913 -9.97164 0
    endloop
  endfacet
  facet normal 0 0 -1
    outer loop
      vertex 9.79508 8.68893 0
      vertex 6.06395 10.7401 0
      vertex 9.39484 9.17274 0
    endloop
  endfacet
  facet normal 0 0 -1
    outer loop
      vertex 6.06395 -10.7401 0
      vertex 8.42913 -9.97164 0
      vertex 7.8789 -10.2741 0
    endloop
  endfacet
  facet normal 0 0 -1
    outer loop
      vertex 9.39484 9.17274 0
      vertex 6.06395 10.7401 0
      vertex 8.93712 9.60257 0
    endloop
  endfacet
  facet normal 0 0 -1
    outer loop
      vertex 6.06395 -10.7401 0
      vertex 7.8789 -10.2741 0
      vertex 7.29508 -10.5053 0
    endloop
  endfacet
  facet normal 0 0 -1
    outer loop
      vertex 8.93712 9.60257 0
      vertex 6.06395 10.7401 0
      vertex 8.42913 9.97164 0
    endloop
  endfacet
  facet normal 0 0 -1
    outer loop
      vertex 6.06395 -10.7401 0
      vertex 7.29508 -10.5053 0
      vertex 6.68691 -10.6614 0
    endloop
  endfacet
  facet normal 0 0 -1
    outer loop
      vertex 8.42913 9.97164 0
      vertex 6.06395 10.7401 0
      vertex 7.8789 10.2741 0
    endloop
  endfacet
  facet normal 0 0 -1
    outer loop
      vertex 7.8789 10.2741 0
      vertex 6.06395 10.7401 0
      vertex 7.29508 10.5053 0
    endloop
  endfacet
  facet normal 0 0 -1
    outer loop
      vertex 7.29508 10.5053 0
      vertex 6.06395 10.7401 0
      vertex 6.68691 10.6614 0
    endloop
  endfacet
  facet normal 0 0 -1
    outer loop
      vertex -10.75 -5.75 0
      vertex 6.06395 -10.7401 0
      vertex -6.06395 -10.7401 0
    endloop
  endfacet
  facet normal 0 0 -1
    outer loop
      vertex -10.75 5.75 0
      vertex 10.75 5.75 0
      vertex -10.75 -5.75 0
    endloop
  endfacet
  facet normal 0 0 -1
    outer loop
      vertex -10.75 -5.75 0
      vertex -6.06395 -10.7401 0
      vertex -6.68691 -10.6614 0
    endloop
  endfacet
  facet normal 0 0 -1
    outer loop
      vertex 10.75 5.75 0
      vertex -10.75 5.75 0
      vertex 6.06395 10.7401 0
    endloop
  endfacet
  facet normal 0 0 -1
    outer loop
      vertex -10.75 -5.75 0
      vertex -6.68691 -10.6614 0
      vertex -7.29508 -10.5053 0
    endloop
  endfacet
  facet normal -0 0 -1
    outer loop
      vertex 6.06395 10.7401 0
      vertex -10.75 5.75 0
      vertex -6.06395 10.7401 0
    endloop
  endfacet
  facet normal 0 0 -1
    outer loop
      vertex -10.75 -5.75 0
      vertex -7.29508 -10.5053 0
      vertex -7.8789 -10.2741 0
    endloop
  endfacet
  facet normal 0 0 -1
    outer loop
      vertex -6.06395 10.7401 0
      vertex -10.75 5.75 0
      vertex -6.68691 10.6614 0
    endloop
  endfacet
  facet normal 0 0 -1
    outer loop
      vertex -10.75 -5.75 0
      vertex -7.8789 -10.2741 0
      vertex -8.42913 -9.97164 0
    endloop
  endfacet
  facet normal 0 0 -1
    outer loop
      vertex -6.68691 10.6614 0
      vertex -10.75 5.75 0
      vertex -7.29508 10.5053 0
    endloop
  endfacet
  facet normal 0 0 -1
    outer loop
      vertex -10.75 -5.75 0
      vertex -8.42913 -9.97164 0
      vertex -8.93712 -9.60257 0
    endloop
  endfacet
  facet normal 0 0 -1
    outer loop
      vertex -7.29508 10.5053 0
      vertex -10.75 5.75 0
      vertex -7.8789 10.2741 0
    endloop
  endfacet
  facet normal 0 0 -1
    outer loop
      vertex -10.75 -5.75 0
      vertex -8.93712 -9.60257 0
      vertex -9.39484 -9.17274 0
    endloop
  endfacet
  facet normal 0 0 -1
    outer loop
      vertex -7.8789 10.2741 0
      vertex -10.75 5.75 0
      vertex -8.42913 9.97164 0
    endloop
  endfacet
  facet normal 0 0 -1
    outer loop
      vertex -10.75 -5.75 0
      vertex -9.39484 -9.17274 0
      vertex -9.79508 -8.68893 0
    endloop
  endfacet
  facet normal 0 0 -1
    outer loop
      vertex -8.42913 9.97164 0
      vertex -10.75 5.75 0
      vertex -8.93712 9.60257 0
    endloop
  endfacet
  facet normal 0 0 -1
    outer loop
      vertex -10.75 -5.75 0
      vertex -9.79508 -8.68893 0
      vertex -10.1315 -8.15877 0
    endloop
  endfacet
  facet normal 0 0 -1
    outer loop
      vertex -8.93712 9.60257 0
      vertex -10.75 5.75 0
      vertex -9.39484 9.17274 0
    endloop
  endfacet
  facet normal 0 0 -1
    outer loop
      vertex -10.75 -5.75 0
      vertex -10.1315 -8.15877 0
      vertex -10.3989 -7.59062 0
    endloop
  endfacet
  facet normal 0 0 -1
    outer loop
      vertex -9.39484 9.17274 0
      vertex -10.75 5.75 0
      vertex -9.79508 8.68893 0
    endloop
  endfacet
  facet normal 0 0 -1
    outer loop
      vertex -10.75 -5.75 0
      vertex -10.3989 -7.59062 0
      vertex -10.5929 -6.99345 0
    endloop
  endfacet
  facet normal 0 0 -1
    outer loop
      vertex -9.79508 8.68893 0
      vertex -10.75 5.75 0
      vertex -10.1315 8.15877 0
    endloop
  endfacet
  facet normal 0 0 -1
    outer loop
      vertex -10.75 -5.75 0
      vertex -10.5929 -6.99345 0
      vertex -10.7106 -6.37667 0
    endloop
  endfacet
  facet normal 0 0 -1
    outer loop
      vertex -10.1315 8.15877 0
      vertex -10.75 5.75 0
      vertex -10.3989 7.59062 0
    endloop
  endfacet
  facet normal 0 0 -1
    outer loop
      vertex -10.3989 7.59062 0
      vertex -10.75 5.75 0
      vertex -10.5929 6.99345 0
    endloop
  endfacet
  facet normal 0 0 -1
    outer loop
      vertex -10.5929 6.99345 0
      vertex -10.75 5.75 0
      vertex -10.7106 6.37667 0
    endloop
  endfacet
  facet normal -0.770515 -0.637422 0
    outer loop
      vertex -9.39484 -9.17274 0
      vertex -9.79508 -8.68893 15
      vertex -9.79508 -8.68893 0
    endloop
  endfacet
  facet normal -0.770515 -0.637422 0
    outer loop
      vertex -9.79508 -8.68893 15
      vertex -9.39484 -9.17274 0
      vertex -9.39484 -9.17274 15
    endloop
  endfacet
  facet normal -0.904797 -0.425843 0
    outer loop
      vertex -10.1315 -8.15877 0
      vertex -10.3989 -7.59062 15
      vertex -10.3989 -7.59062 0
    endloop
  endfacet
  facet normal -0.904797 -0.425843 0
    outer loop
      vertex -10.3989 -7.59062 15
      vertex -10.1315 -8.15877 0
      vertex -10.1315 -8.15877 15
    endloop
  endfacet
  facet normal -0.368192 -0.92975 0
    outer loop
      vertex -7.8789 -10.2741 0
      vertex -7.29508 -10.5053 15
      vertex -7.8789 -10.2741 15
    endloop
  endfacet
  facet normal -0.368192 -0.92975 -0
    outer loop
      vertex -7.29508 -10.5053 15
      vertex -7.8789 -10.2741 0
      vertex -7.29508 -10.5053 0
    endloop
  endfacet
  facet normal -0.248613 -0.968603 0
    outer loop
      vertex -7.29508 -10.5053 0
      vertex -6.68691 -10.6614 15
      vertex -7.29508 -10.5053 15
    endloop
  endfacet
  facet normal -0.248613 -0.968603 -0
    outer loop
      vertex -6.68691 -10.6614 15
      vertex -7.29508 -10.5053 0
      vertex -6.68691 -10.6614 0
    endloop
  endfacet
  facet normal 0.368192 -0.92975 0
    outer loop
      vertex 7.29508 -10.5053 0
      vertex 7.8789 -10.2741 15
      vertex 7.29508 -10.5053 15
    endloop
  endfacet
  facet normal 0.368192 -0.92975 0
    outer loop
      vertex 7.8789 -10.2741 15
      vertex 7.29508 -10.5053 0
      vertex 7.8789 -10.2741 0
    endloop
  endfacet
  facet normal 0.125336 -0.992114 0
    outer loop
      vertex 6.06395 -10.7401 0
      vertex 6.68691 -10.6614 15
      vertex 6.06395 -10.7401 15
    endloop
  endfacet
  facet normal 0.125336 -0.992114 0
    outer loop
      vertex 6.68691 -10.6614 15
      vertex 6.06395 -10.7401 0
      vertex 6.68691 -10.6614 0
    endloop
  endfacet
  facet normal 0.844349 -0.535793 0
    outer loop
      vertex 9.79508 -8.68893 15
      vertex 10.1315 -8.15877 0
      vertex 10.1315 -8.15877 15
    endloop
  endfacet
  facet normal 0.844349 -0.535793 0
    outer loop
      vertex 10.1315 -8.15877 0
      vertex 9.79508 -8.68893 15
      vertex 9.79508 -8.68893 0
    endloop
  endfacet
  facet normal 0.684549 -0.728967 0
    outer loop
      vertex 8.93712 -9.60257 0
      vertex 9.39484 -9.17274 15
      vertex 8.93712 -9.60257 15
    endloop
  endfacet
  facet normal 0.684549 -0.728967 0
    outer loop
      vertex 9.39484 -9.17274 15
      vertex 8.93712 -9.60257 0
      vertex 9.39484 -9.17274 0
    endloop
  endfacet
  facet normal 0.844349 0.535793 0
    outer loop
      vertex 10.1315 8.15877 15
      vertex 9.79508 8.68893 0
      vertex 9.79508 8.68893 15
    endloop
  endfacet
  facet normal 0.844349 0.535793 0
    outer loop
      vertex 9.79508 8.68893 0
      vertex 10.1315 8.15877 15
      vertex 10.1315 8.15877 0
    endloop
  endfacet
  facet normal 0.587779 0.809022 -0
    outer loop
      vertex 8.93712 9.60257 0
      vertex 8.42913 9.97164 15
      vertex 8.93712 9.60257 15
    endloop
  endfacet
  facet normal 0.587779 0.809022 0
    outer loop
      vertex 8.42913 9.97164 15
      vertex 8.93712 9.60257 0
      vertex 8.42913 9.97164 0
    endloop
  endfacet
  facet normal 0.982275 0.187447 0
    outer loop
      vertex 10.7106 6.37667 15
      vertex 10.5929 6.99345 0
      vertex 10.5929 6.99345 15
    endloop
  endfacet
  facet normal 0.982275 0.187447 0
    outer loop
      vertex 10.5929 6.99345 0
      vertex 10.7106 6.37667 15
      vertex 10.7106 6.37667 0
    endloop
  endfacet
  facet normal 0.998029 0.0627481 0
    outer loop
      vertex 10.75 5.75 15
      vertex 10.7106 6.37667 0
      vertex 10.7106 6.37667 15
    endloop
  endfacet
  facet normal 0.998029 0.0627481 0
    outer loop
      vertex 10.7106 6.37667 0
      vertex 10.75 5.75 15
      vertex 10.75 5.75 0
    endloop
  endfacet
  facet normal 0.481715 0.876328 -0
    outer loop
      vertex 8.42913 9.97164 0
      vertex 7.8789 10.2741 15
      vertex 8.42913 9.97164 15
    endloop
  endfacet
  facet normal 0.481715 0.876328 0
    outer loop
      vertex 7.8789 10.2741 15
      vertex 8.42913 9.97164 0
      vertex 7.8789 10.2741 0
    endloop
  endfacet
  facet normal -0.684549 0.728967 0
    outer loop
      vertex -8.93712 9.60257 0
      vertex -9.39484 9.17274 15
      vertex -8.93712 9.60257 15
    endloop
  endfacet
  facet normal -0.684549 0.728967 0
    outer loop
      vertex -9.39484 9.17274 15
      vertex -8.93712 9.60257 0
      vertex -9.39484 9.17274 0
    endloop
  endfacet
  facet normal -0.481715 0.876328 0
    outer loop
      vertex -7.8789 10.2741 0
      vertex -8.42913 9.97164 15
      vertex -7.8789 10.2741 15
    endloop
  endfacet
  facet normal -0.481715 0.876328 0
    outer loop
      vertex -8.42913 9.97164 15
      vertex -7.8789 10.2741 0
      vertex -8.42913 9.97164 0
    endloop
  endfacet
  facet normal -0.998029 0.0627481 0
    outer loop
      vertex -10.75 5.75 0
      vertex -10.7106 6.37667 15
      vertex -10.7106 6.37667 0
    endloop
  endfacet
  facet normal -0.998029 0.0627481 0
    outer loop
      vertex -10.7106 6.37667 15
      vertex -10.75 5.75 0
      vertex -10.75 5.75 15
    endloop
  endfacet
  facet normal -0.982275 -0.187447 0
    outer loop
      vertex -10.5929 -6.99345 0
      vertex -10.7106 -6.37667 15
      vertex -10.7106 -6.37667 0
    endloop
  endfacet
  facet normal -0.982275 -0.187447 0
    outer loop
      vertex -10.7106 -6.37667 15
      vertex -10.5929 -6.99345 0
      vertex -10.5929 -6.99345 15
    endloop
  endfacet
  facet normal -0.844349 -0.535793 0
    outer loop
      vertex -9.79508 -8.68893 0
      vertex -10.1315 -8.15877 15
      vertex -10.1315 -8.15877 0
    endloop
  endfacet
  facet normal -0.844349 -0.535793 0
    outer loop
      vertex -10.1315 -8.15877 15
      vertex -9.79508 -8.68893 0
      vertex -9.79508 -8.68893 15
    endloop
  endfacet
  facet normal -0.481715 -0.876328 0
    outer loop
      vertex -8.42913 -9.97164 0
      vertex -7.8789 -10.2741 15
      vertex -8.42913 -9.97164 15
    endloop
  endfacet
  facet normal -0.481715 -0.876328 -0
    outer loop
      vertex -7.8789 -10.2741 15
      vertex -8.42913 -9.97164 0
      vertex -7.8789 -10.2741 0
    endloop
  endfacet
  facet normal -0.587779 -0.809022 0
    outer loop
      vertex -8.93712 -9.60257 0
      vertex -8.42913 -9.97164 15
      vertex -8.93712 -9.60257 15
    endloop
  endfacet
  facet normal -0.587779 -0.809022 -0
    outer loop
      vertex -8.42913 -9.97164 15
      vertex -8.93712 -9.60257 0
      vertex -8.42913 -9.97164 0
    endloop
  endfacet
  facet normal -0.125336 -0.992114 0
    outer loop
      vertex -6.68691 -10.6614 0
      vertex -6.06395 -10.7401 15
      vertex -6.68691 -10.6614 15
    endloop
  endfacet
  facet normal -0.125336 -0.992114 -0
    outer loop
      vertex -6.06395 -10.7401 15
      vertex -6.68691 -10.6614 0
      vertex -6.06395 -10.7401 0
    endloop
  endfacet
  facet normal 0.248613 -0.968603 0
    outer loop
      vertex 6.68691 -10.6614 0
      vertex 7.29508 -10.5053 15
      vertex 6.68691 -10.6614 15
    endloop
  endfacet
  facet normal 0.248613 -0.968603 0
    outer loop
      vertex 7.29508 -10.5053 15
      vertex 6.68691 -10.6614 0
      vertex 7.29508 -10.5053 0
    endloop
  endfacet
  facet normal 0.982275 -0.187447 0
    outer loop
      vertex 10.5929 -6.99345 15
      vertex 10.7106 -6.37667 0
      vertex 10.7106 -6.37667 15
    endloop
  endfacet
  facet normal 0.982275 -0.187447 0
    outer loop
      vertex 10.7106 -6.37667 0
      vertex 10.5929 -6.99345 15
      vertex 10.5929 -6.99345 0
    endloop
  endfacet
  facet normal 0.904797 -0.425843 0
    outer loop
      vertex 10.1315 -8.15877 15
      vertex 10.3989 -7.59062 0
      vertex 10.3989 -7.59062 15
    endloop
  endfacet
  facet normal 0.904797 -0.425843 0
    outer loop
      vertex 10.3989 -7.59062 0
      vertex 10.1315 -8.15877 15
      vertex 10.1315 -8.15877 0
    endloop
  endfacet
  facet normal 0.587779 -0.809022 0
    outer loop
      vertex 8.42913 -9.97164 0
      vertex 8.93712 -9.60257 15
      vertex 8.42913 -9.97164 15
    endloop
  endfacet
  facet normal 0.587779 -0.809022 0
    outer loop
      vertex 8.93712 -9.60257 15
      vertex 8.42913 -9.97164 0
      vertex 8.93712 -9.60257 0
    endloop
  endfacet
  facet normal 0.770515 -0.637422 0
    outer loop
      vertex 9.39484 -9.17274 15
      vertex 9.79508 -8.68893 0
      vertex 9.79508 -8.68893 15
    endloop
  endfacet
  facet normal 0.770515 -0.637422 0
    outer loop
      vertex 9.79508 -8.68893 0
      vertex 9.39484 -9.17274 15
      vertex 9.39484 -9.17274 0
    endloop
  endfacet
  facet normal 0.770515 0.637422 0
    outer loop
      vertex 9.79508 8.68893 15
      vertex 9.39484 9.17274 0
      vertex 9.39484 9.17274 15
    endloop
  endfacet
  facet normal 0.770515 0.637422 0
    outer loop
      vertex 9.39484 9.17274 0
      vertex 9.79508 8.68893 15
      vertex 9.79508 8.68893 0
    endloop
  endfacet
  facet normal 0.904797 0.425843 0
    outer loop
      vertex 10.3989 7.59062 15
      vertex 10.1315 8.15877 0
      vertex 10.1315 8.15877 15
    endloop
  endfacet
  facet normal 0.904797 0.425843 0
    outer loop
      vertex 10.1315 8.15877 0
      vertex 10.3989 7.59062 15
      vertex 10.3989 7.59062 0
    endloop
  endfacet
  facet normal -0.904797 0.425843 0
    outer loop
      vertex -10.3989 7.59062 0
      vertex -10.1315 8.15877 15
      vertex -10.1315 8.15877 0
    endloop
  endfacet
  facet normal -0.904797 0.425843 0
    outer loop
      vertex -10.1315 8.15877 15
      vertex -10.3989 7.59062 0
      vertex -10.3989 7.59062 15
    endloop
  endfacet
  facet normal -0.844349 0.535793 0
    outer loop
      vertex -10.1315 8.15877 0
      vertex -9.79508 8.68893 15
      vertex -9.79508 8.68893 0
    endloop
  endfacet
  facet normal -0.844349 0.535793 0
    outer loop
      vertex -9.79508 8.68893 15
      vertex -10.1315 8.15877 0
      vertex -10.1315 8.15877 15
    endloop
  endfacet
  facet normal -0.248613 0.968603 0
    outer loop
      vertex -6.68691 10.6614 0
      vertex -7.29508 10.5053 15
      vertex -6.68691 10.6614 15
    endloop
  endfacet
  facet normal -0.248613 0.968603 0
    outer loop
      vertex -7.29508 10.5053 15
      vertex -6.68691 10.6614 0
      vertex -7.29508 10.5053 0
    endloop
  endfacet
  facet normal -0.125336 0.992114 0
    outer loop
      vertex -6.06395 10.7401 0
      vertex -6.68691 10.6614 15
      vertex -6.06395 10.7401 15
    endloop
  endfacet
  facet normal -0.125336 0.992114 0
    outer loop
      vertex -6.68691 10.6614 15
      vertex -6.06395 10.7401 0
      vertex -6.68691 10.6614 0
    endloop
  endfacet
  facet normal -0.982275 0.187447 0
    outer loop
      vertex -10.7106 6.37667 0
      vertex -10.5929 6.99345 15
      vertex -10.5929 6.99345 0
    endloop
  endfacet
  facet normal -0.982275 0.187447 0
    outer loop
      vertex -10.5929 6.99345 15
      vertex -10.7106 6.37667 0
      vertex -10.7106 6.37667 15
    endloop
  endfacet
  facet normal -0.997166 -0.0627232 0.0415486
    outer loop
      vertex 2.75 0 3
      vertex 3.25 0 15
      vertex 2.72832 0.344666 3
    endloop
  endfacet
  facet normal 0.997166 0.0627232 0.0415486
    outer loop
      vertex -2.72832 -0.344666 3
      vertex -2.75 0 3
      vertex -3.25 0 15
    endloop
  endfacet
  facet normal -0.997165 0.0627432 0.0415479
    outer loop
      vertex 3.22437 -0.407332 15
      vertex 3.25 0 15
      vertex 2.72832 -0.344666 3
    endloop
  endfacet
  facet normal -0.683956 -0.728339 0.0415493
    outer loop
      vertex 2.36915 2.22478 15
      vertex 2.07163 2.50417 15
      vertex 2.00466 1.8825 3
    endloop
  endfacet
  facet normal 0 0.999136 0.0415491
    outer loop
      vertex 0.172673 -2.74457 3
      vertex -0.204069 -3.24359 15
      vertex 0.204069 -3.24359 15
    endloop
  endfacet
  facet normal 0 0.999136 0.0415491
    outer loop
      vertex -0.204069 -3.24359 15
      vertex 0.172673 -2.74457 3
      vertex -0.172673 -2.74457 3
    endloop
  endfacet
  facet normal -0.125215 -0.991259 0.0415491
    outer loop
      vertex 0.515298 2.70129 3
      vertex 0.204069 3.24359 15
      vertex 0.172673 2.74457 3
    endloop
  endfacet
  facet normal -0.683956 0.728339 0.0415493
    outer loop
      vertex 2.07163 -2.50417 15
      vertex 2.36915 -2.22478 15
      vertex 2.00466 -1.8825 3
    endloop
  endfacet
  facet normal 0.904048 0.425407 0.0415486
    outer loop
      vertex -2.40984 -1.32482 3
      vertex -2.55688 -1.01234 3
      vertex -3.02177 -1.1964 15
    endloop
  endfacet
  facet normal 0.683956 0.728339 0.0415493
    outer loop
      vertex -2.07163 -2.50417 15
      vertex -2.00466 -1.8825 3
      vertex -2.36915 -2.22478 15
    endloop
  endfacet
  facet normal 0.997165 -0.0627432 0.0415479
    outer loop
      vertex -2.72832 0.344666 3
      vertex -3.22437 0.407332 15
      vertex -3.25 0 15
    endloop
  endfacet
  facet normal 0.950235 -0.30875 0.0415486
    outer loop
      vertex -2.55688 1.01234 3
      vertex -3.02177 1.1964 15
      vertex -3.14789 0.808242 15
    endloop
  endfacet
  facet normal -0.248463 -0.96775 0.0415483
    outer loop
      vertex 0.849796 2.61541 3
      vertex 0.608989 3.19243 15
      vertex 0.515298 2.70129 3
    endloop
  endfacet
  facet normal -0.981438 -0.187225 0.0415479
    outer loop
      vertex 3.22437 0.407332 15
      vertex 3.14789 0.808242 15
      vertex 2.72832 0.344666 3
    endloop
  endfacet
  facet normal -0.950235 0.30875 0.0415486
    outer loop
      vertex 3.02177 -1.1964 15
      vertex 3.14789 -0.808242 15
      vertex 2.55688 -1.01234 3
    endloop
  endfacet
  facet normal -0.769832 0.636893 0.0415478
    outer loop
      vertex 2.6293 -1.9103 15
      vertex 2.2248 -1.61641 3
      vertex 2.00466 -1.8825 3
    endloop
  endfacet
  facet normal -0.367831 0.928964 0.0415491
    outer loop
      vertex 1.38378 -2.94069 15
      vertex 1.17089 -2.48827 3
      vertex 0.849796 -2.61541 3
    endloop
  endfacet
  facet normal -0.367792 0.928979 0.0415478
    outer loop
      vertex 1.0043 -3.09093 15
      vertex 1.38378 -2.94069 15
      vertex 0.849796 -2.61541 3
    endloop
  endfacet
  facet normal 0.950233 0.308756 0.0415484
    outer loop
      vertex -2.55688 -1.01234 3
      vertex -2.6636 -0.683897 3
      vertex -3.14789 -0.808242 15
    endloop
  endfacet
  facet normal 0.683972 -0.728324 0.0415486
    outer loop
      vertex -2.00466 1.8825 3
      vertex -1.75292 2.11891 3
      vertex -2.07163 2.50417 15
    endloop
  endfacet
  facet normal 0.248478 -0.967746 0.0415478
    outer loop
      vertex -0.849796 2.61541 3
      vertex -0.608989 3.19243 15
      vertex -1.0043 3.09093 15
    endloop
  endfacet
  facet normal 0.587282 -0.808315 0.0415493
    outer loop
      vertex -1.47352 2.3219 3
      vertex -1.74144 2.74407 15
      vertex -2.07163 2.50417 15
    endloop
  endfacet
  facet normal -0.125241 -0.991256 0.0415483
    outer loop
      vertex 0.515298 2.70129 3
      vertex 0.608989 3.19243 15
      vertex 0.204069 3.24359 15
    endloop
  endfacet
  facet normal -0.904048 -0.425407 0.0415486
    outer loop
      vertex 2.55688 1.01234 3
      vertex 3.02177 1.1964 15
      vertex 2.40984 1.32482 3
    endloop
  endfacet
  facet normal -0.76986 -0.636858 0.0415492
    outer loop
      vertex 2.6293 1.9103 15
      vertex 2.36915 2.22478 15
      vertex 2.00466 1.8825 3
    endloop
  endfacet
  facet normal -0.950235 -0.30875 0.0415486
    outer loop
      vertex 3.14789 0.808242 15
      vertex 3.02177 1.1964 15
      vertex 2.55688 1.01234 3
    endloop
  endfacet
  facet normal -0.997165 -0.0627432 0.0415479
    outer loop
      vertex 3.25 0 15
      vertex 3.22437 0.407332 15
      vertex 2.72832 0.344666 3
    endloop
  endfacet
  facet normal -0.981438 0.187225 0.0415479
    outer loop
      vertex 3.14789 -0.808242 15
      vertex 3.22437 -0.407332 15
      vertex 2.72832 -0.344666 3
    endloop
  endfacet
  facet normal -0.950233 0.308756 0.0415484
    outer loop
      vertex 3.14789 -0.808242 15
      vertex 2.6636 -0.683897 3
      vertex 2.55688 -1.01234 3
    endloop
  endfacet
  facet normal -0.997166 0.0627232 0.0415486
    outer loop
      vertex 3.25 0 15
      vertex 2.75 0 3
      vertex 2.72832 -0.344666 3
    endloop
  endfacet
  facet normal -0.76986 0.636858 0.0415492
    outer loop
      vertex 2.36915 -2.22478 15
      vertex 2.6293 -1.9103 15
      vertex 2.00466 -1.8825 3
    endloop
  endfacet
  facet normal -0.904055 0.425393 0.0415491
    outer loop
      vertex 2.848 -1.5657 15
      vertex 3.02177 -1.1964 15
      vertex 2.40984 -1.32482 3
    endloop
  endfacet
  facet normal -0.248478 0.967746 0.0415478
    outer loop
      vertex 1.0043 -3.09093 15
      vertex 0.849796 -2.61541 3
      vertex 0.608989 -3.19243 15
    endloop
  endfacet
  facet normal -0.587282 0.808315 0.0415493
    outer loop
      vertex 1.74144 -2.74407 15
      vertex 2.07163 -2.50417 15
      vertex 1.47352 -2.3219 3
    endloop
  endfacet
  facet normal -0.481333 0.875553 0.0415492
    outer loop
      vertex 1.74144 -2.74407 15
      vertex 1.47352 -2.3219 3
      vertex 1.17089 -2.48827 3
    endloop
  endfacet
  facet normal -0.248463 0.96775 0.0415483
    outer loop
      vertex 0.608989 -3.19243 15
      vertex 0.849796 -2.61541 3
      vertex 0.515298 -2.70129 3
    endloop
  endfacet
  facet normal 0.950235 0.30875 0.0415486
    outer loop
      vertex -3.02177 -1.1964 15
      vertex -2.55688 -1.01234 3
      vertex -3.14789 -0.808242 15
    endloop
  endfacet
  facet normal 0.981435 0.187242 0.0415485
    outer loop
      vertex -2.6636 -0.683897 3
      vertex -2.72832 -0.344666 3
      vertex -3.14789 -0.808242 15
    endloop
  endfacet
  facet normal 0 0 1
    outer loop
      vertex 2.72832 0.344666 3
      vertex 2.72832 -0.344666 3
      vertex 2.75 0 3
    endloop
  endfacet
  facet normal 0 0 1
    outer loop
      vertex 2.6636 0.683897 3
      vertex 2.72832 -0.344666 3
      vertex 2.72832 0.344666 3
    endloop
  endfacet
  facet normal 0 0 1
    outer loop
      vertex 2.6636 0.683897 3
      vertex 2.6636 -0.683897 3
      vertex 2.72832 -0.344666 3
    endloop
  endfacet
  facet normal 0 0 1
    outer loop
      vertex 2.55688 1.01234 3
      vertex 2.6636 -0.683897 3
      vertex 2.6636 0.683897 3
    endloop
  endfacet
  facet normal 0 0 1
    outer loop
      vertex 2.55688 1.01234 3
      vertex 2.55688 -1.01234 3
      vertex 2.6636 -0.683897 3
    endloop
  endfacet
  facet normal 0 0 1
    outer loop
      vertex 2.40984 1.32482 3
      vertex 2.55688 -1.01234 3
      vertex 2.55688 1.01234 3
    endloop
  endfacet
  facet normal 0 0 1
    outer loop
      vertex 2.40984 1.32482 3
      vertex 2.40984 -1.32482 3
      vertex 2.55688 -1.01234 3
    endloop
  endfacet
  facet normal 0 0 1
    outer loop
      vertex 2.2248 1.61641 3
      vertex 2.40984 -1.32482 3
      vertex 2.40984 1.32482 3
    endloop
  endfacet
  facet normal 0 0 1
    outer loop
      vertex 2.2248 1.61641 3
      vertex 2.2248 -1.61641 3
      vertex 2.40984 -1.32482 3
    endloop
  endfacet
  facet normal 0 0 1
    outer loop
      vertex 2.00466 1.8825 3
      vertex 2.2248 -1.61641 3
      vertex 2.2248 1.61641 3
    endloop
  endfacet
  facet normal 0 0 1
    outer loop
      vertex 2.00466 1.8825 3
      vertex 2.00466 -1.8825 3
      vertex 2.2248 -1.61641 3
    endloop
  endfacet
  facet normal 0 0 1
    outer loop
      vertex 1.75292 2.11891 3
      vertex 2.00466 -1.8825 3
      vertex 2.00466 1.8825 3
    endloop
  endfacet
  facet normal 0 0 1
    outer loop
      vertex 1.75292 2.11891 3
      vertex 1.75292 -2.11891 3
      vertex 2.00466 -1.8825 3
    endloop
  endfacet
  facet normal 0 0 1
    outer loop
      vertex 1.47352 2.3219 3
      vertex 1.75292 -2.11891 3
      vertex 1.75292 2.11891 3
    endloop
  endfacet
  facet normal 0 0 1
    outer loop
      vertex 1.47352 2.3219 3
      vertex 1.47352 -2.3219 3
      vertex 1.75292 -2.11891 3
    endloop
  endfacet
  facet normal 0 0 1
    outer loop
      vertex 1.17089 2.48827 3
      vertex 1.47352 -2.3219 3
      vertex 1.47352 2.3219 3
    endloop
  endfacet
  facet normal 0 0 1
    outer loop
      vertex 1.17089 2.48827 3
      vertex 1.17089 -2.48827 3
      vertex 1.47352 -2.3219 3
    endloop
  endfacet
  facet normal 0 0 1
    outer loop
      vertex 0.849796 2.61541 3
      vertex 1.17089 -2.48827 3
      vertex 1.17089 2.48827 3
    endloop
  endfacet
  facet normal 0 0 1
    outer loop
      vertex 0.849796 2.61541 3
      vertex 0.849796 -2.61541 3
      vertex 1.17089 -2.48827 3
    endloop
  endfacet
  facet normal 0 0 1
    outer loop
      vertex 0.515298 2.70129 3
      vertex 0.849796 -2.61541 3
      vertex 0.849796 2.61541 3
    endloop
  endfacet
  facet normal 0 0 1
    outer loop
      vertex 0.515298 2.70129 3
      vertex 0.515298 -2.70129 3
      vertex 0.849796 -2.61541 3
    endloop
  endfacet
  facet normal 0 0 1
    outer loop
      vertex 0.172673 2.74457 3
      vertex 0.515298 -2.70129 3
      vertex 0.515298 2.70129 3
    endloop
  endfacet
  facet normal 0 0 1
    outer loop
      vertex 0.172673 2.74457 3
      vertex 0.172673 -2.74457 3
      vertex 0.515298 -2.70129 3
    endloop
  endfacet
  facet normal -0 0 1
    outer loop
      vertex -0.172673 2.74457 3
      vertex 0.172673 -2.74457 3
      vertex 0.172673 2.74457 3
    endloop
  endfacet
  facet normal 0 0 1
    outer loop
      vertex -0.172673 2.74457 3
      vertex -0.172673 -2.74457 3
      vertex 0.172673 -2.74457 3
    endloop
  endfacet
  facet normal -0 0 1
    outer loop
      vertex -0.515298 2.70129 3
      vertex -0.172673 -2.74457 3
      vertex -0.172673 2.74457 3
    endloop
  endfacet
  facet normal 0 0 1
    outer loop
      vertex -0.515298 2.70129 3
      vertex -0.515298 -2.70129 3
      vertex -0.172673 -2.74457 3
    endloop
  endfacet
  facet normal -0 0 1
    outer loop
      vertex -0.849796 2.61541 3
      vertex -0.515298 -2.70129 3
      vertex -0.515298 2.70129 3
    endloop
  endfacet
  facet normal 0 0 1
    outer loop
      vertex -0.849796 2.61541 3
      vertex -0.849796 -2.61541 3
      vertex -0.515298 -2.70129 3
    endloop
  endfacet
  facet normal -0 0 1
    outer loop
      vertex -1.17089 2.48827 3
      vertex -0.849796 -2.61541 3
      vertex -0.849796 2.61541 3
    endloop
  endfacet
  facet normal 0 0 1
    outer loop
      vertex -1.17089 2.48827 3
      vertex -1.17089 -2.48827 3
      vertex -0.849796 -2.61541 3
    endloop
  endfacet
  facet normal -0 0 1
    outer loop
      vertex -1.47352 2.3219 3
      vertex -1.17089 -2.48827 3
      vertex -1.17089 2.48827 3
    endloop
  endfacet
  facet normal 0 0 1
    outer loop
      vertex -1.47352 2.3219 3
      vertex -1.47352 -2.3219 3
      vertex -1.17089 -2.48827 3
    endloop
  endfacet
  facet normal -0 0 1
    outer loop
      vertex -1.75292 2.11891 3
      vertex -1.47352 -2.3219 3
      vertex -1.47352 2.3219 3
    endloop
  endfacet
  facet normal 0 0 1
    outer loop
      vertex -1.75292 2.11891 3
      vertex -1.75292 -2.11891 3
      vertex -1.47352 -2.3219 3
    endloop
  endfacet
  facet normal -0 0 1
    outer loop
      vertex -2.00466 1.8825 3
      vertex -1.75292 -2.11891 3
      vertex -1.75292 2.11891 3
    endloop
  endfacet
  facet normal 0 0 1
    outer loop
      vertex -2.00466 1.8825 3
      vertex -2.00466 -1.8825 3
      vertex -1.75292 -2.11891 3
    endloop
  endfacet
  facet normal -0 0 1
    outer loop
      vertex -2.2248 1.61641 3
      vertex -2.00466 -1.8825 3
      vertex -2.00466 1.8825 3
    endloop
  endfacet
  facet normal 0 0 1
    outer loop
      vertex -2.2248 1.61641 3
      vertex -2.2248 -1.61641 3
      vertex -2.00466 -1.8825 3
    endloop
  endfacet
  facet normal -0 0 1
    outer loop
      vertex -2.40984 1.32482 3
      vertex -2.2248 -1.61641 3
      vertex -2.2248 1.61641 3
    endloop
  endfacet
  facet normal 0 0 1
    outer loop
      vertex -2.40984 1.32482 3
      vertex -2.40984 -1.32482 3
      vertex -2.2248 -1.61641 3
    endloop
  endfacet
  facet normal -0 0 1
    outer loop
      vertex -2.55688 1.01234 3
      vertex -2.40984 -1.32482 3
      vertex -2.40984 1.32482 3
    endloop
  endfacet
  facet normal 0 0 1
    outer loop
      vertex -2.55688 1.01234 3
      vertex -2.55688 -1.01234 3
      vertex -2.40984 -1.32482 3
    endloop
  endfacet
  facet normal -0 0 1
    outer loop
      vertex -2.6636 0.683897 3
      vertex -2.55688 -1.01234 3
      vertex -2.55688 1.01234 3
    endloop
  endfacet
  facet normal 0 0 1
    outer loop
      vertex -2.6636 0.683897 3
      vertex -2.6636 -0.683897 3
      vertex -2.55688 -1.01234 3
    endloop
  endfacet
  facet normal -0 0 1
    outer loop
      vertex -2.72832 0.344666 3
      vertex -2.6636 -0.683897 3
      vertex -2.6636 0.683897 3
    endloop
  endfacet
  facet normal 0 0 1
    outer loop
      vertex -2.72832 0.344666 3
      vertex -2.72832 -0.344666 3
      vertex -2.6636 -0.683897 3
    endloop
  endfacet
  facet normal 0 -0 1
    outer loop
      vertex -2.72832 -0.344666 3
      vertex -2.72832 0.344666 3
      vertex -2.75 0 3
    endloop
  endfacet
  facet normal 0.367831 0.928964 0.0415491
    outer loop
      vertex -0.849796 -2.61541 3
      vertex -1.17089 -2.48827 3
      vertex -1.38378 -2.94069 15
    endloop
  endfacet
  facet normal 0.367792 0.928979 0.0415478
    outer loop
      vertex -1.0043 -3.09093 15
      vertex -0.849796 -2.61541 3
      vertex -1.38378 -2.94069 15
    endloop
  endfacet
  facet normal 0.683972 0.728324 0.0415486
    outer loop
      vertex -1.75292 -2.11891 3
      vertex -2.00466 -1.8825 3
      vertex -2.07163 -2.50417 15
    endloop
  endfacet
  facet normal 0.769832 0.636893 0.0415478
    outer loop
      vertex -2.00466 -1.8825 3
      vertex -2.2248 -1.61641 3
      vertex -2.6293 -1.9103 15
    endloop
  endfacet
  facet normal 0.76986 0.636858 0.0415492
    outer loop
      vertex -2.36915 -2.22478 15
      vertex -2.00466 -1.8825 3
      vertex -2.6293 -1.9103 15
    endloop
  endfacet
  facet normal 0.981438 -0.187225 0.0415479
    outer loop
      vertex -2.72832 0.344666 3
      vertex -3.14789 0.808242 15
      vertex -3.22437 0.407332 15
    endloop
  endfacet
  facet normal 0.950233 -0.308756 0.0415484
    outer loop
      vertex -2.6636 0.683897 3
      vertex -2.55688 1.01234 3
      vertex -3.14789 0.808242 15
    endloop
  endfacet
  facet normal 0 -0.999136 0.0415491
    outer loop
      vertex -0.172673 2.74457 3
      vertex 0.204069 3.24359 15
      vertex -0.204069 3.24359 15
    endloop
  endfacet
  facet normal 0 -0.999136 0.0415491
    outer loop
      vertex 0.204069 3.24359 15
      vertex -0.172673 2.74457 3
      vertex 0.172673 2.74457 3
    endloop
  endfacet
  facet normal 0.997166 -0.0627232 0.0415486
    outer loop
      vertex -2.75 0 3
      vertex -2.72832 0.344666 3
      vertex -3.25 0 15
    endloop
  endfacet
  facet normal -0.367792 -0.928979 0.0415478
    outer loop
      vertex 1.38378 2.94069 15
      vertex 1.0043 3.09093 15
      vertex 0.849796 2.61541 3
    endloop
  endfacet
  facet normal -0.248478 -0.967746 0.0415478
    outer loop
      vertex 0.849796 2.61541 3
      vertex 1.0043 3.09093 15
      vertex 0.608989 3.19243 15
    endloop
  endfacet
  facet normal -0.587282 -0.808315 0.0415493
    outer loop
      vertex 2.07163 2.50417 15
      vertex 1.74144 2.74407 15
      vertex 1.47352 2.3219 3
    endloop
  endfacet
  facet normal -0.769832 -0.636893 0.0415478
    outer loop
      vertex 2.2248 1.61641 3
      vertex 2.6293 1.9103 15
      vertex 2.00466 1.8825 3
    endloop
  endfacet
  facet normal -0.950233 -0.308756 0.0415484
    outer loop
      vertex 2.6636 0.683897 3
      vertex 3.14789 0.808242 15
      vertex 2.55688 1.01234 3
    endloop
  endfacet
  facet normal -0.981435 -0.187242 0.0415485
    outer loop
      vertex 2.72832 0.344666 3
      vertex 3.14789 0.808242 15
      vertex 2.6636 0.683897 3
    endloop
  endfacet
  facet normal -0.981435 0.187242 0.0415485
    outer loop
      vertex 3.14789 -0.808242 15
      vertex 2.72832 -0.344666 3
      vertex 2.6636 -0.683897 3
    endloop
  endfacet
  facet normal -0.843588 0.535382 0.0415491
    outer loop
      vertex 2.6293 -1.9103 15
      vertex 2.848 -1.5657 15
      vertex 2.40984 -1.32482 3
    endloop
  endfacet
  facet normal -0.84361 0.535346 0.0415478
    outer loop
      vertex 2.6293 -1.9103 15
      vertex 2.40984 -1.32482 3
      vertex 2.2248 -1.61641 3
    endloop
  endfacet
  facet normal -0.481328 0.875555 0.0415491
    outer loop
      vertex 1.38378 -2.94069 15
      vertex 1.74144 -2.74407 15
      vertex 1.17089 -2.48827 3
    endloop
  endfacet
  facet normal -0.587266 0.808327 0.0415486
    outer loop
      vertex 2.07163 -2.50417 15
      vertex 1.75292 -2.11891 3
      vertex 1.47352 -2.3219 3
    endloop
  endfacet
  facet normal -0.125241 0.991256 0.0415483
    outer loop
      vertex 0.608989 -3.19243 15
      vertex 0.515298 -2.70129 3
      vertex 0.204069 -3.24359 15
    endloop
  endfacet
  facet normal 0.981438 0.187225 0.0415479
    outer loop
      vertex -3.14789 -0.808242 15
      vertex -2.72832 -0.344666 3
      vertex -3.22437 -0.407332 15
    endloop
  endfacet
  facet normal 0.997165 0.0627432 0.0415479
    outer loop
      vertex -3.22437 -0.407332 15
      vertex -2.72832 -0.344666 3
      vertex -3.25 0 15
    endloop
  endfacet
  facet normal 0.481333 0.875553 0.0415492
    outer loop
      vertex -1.17089 -2.48827 3
      vertex -1.47352 -2.3219 3
      vertex -1.74144 -2.74407 15
    endloop
  endfacet
  facet normal 0.125241 0.991256 0.0415483
    outer loop
      vertex -0.204069 -3.24359 15
      vertex -0.515298 -2.70129 3
      vertex -0.608989 -3.19243 15
    endloop
  endfacet
  facet normal 0.248463 0.96775 0.0415483
    outer loop
      vertex -0.608989 -3.19243 15
      vertex -0.515298 -2.70129 3
      vertex -0.849796 -2.61541 3
    endloop
  endfacet
  facet normal 0.481328 0.875555 0.0415491
    outer loop
      vertex -1.38378 -2.94069 15
      vertex -1.17089 -2.48827 3
      vertex -1.74144 -2.74407 15
    endloop
  endfacet
  facet normal 0.84361 0.535346 0.0415478
    outer loop
      vertex -2.2248 -1.61641 3
      vertex -2.40984 -1.32482 3
      vertex -2.6293 -1.9103 15
    endloop
  endfacet
  facet normal 0.587266 -0.808327 0.0415486
    outer loop
      vertex -1.75292 2.11891 3
      vertex -1.47352 2.3219 3
      vertex -2.07163 2.50417 15
    endloop
  endfacet
  facet normal 0.981435 -0.187242 0.0415485
    outer loop
      vertex -2.72832 0.344666 3
      vertex -2.6636 0.683897 3
      vertex -3.14789 0.808242 15
    endloop
  endfacet
  facet normal 0.904048 -0.425407 0.0415486
    outer loop
      vertex -2.55688 1.01234 3
      vertex -2.40984 1.32482 3
      vertex -3.02177 1.1964 15
    endloop
  endfacet
  facet normal -0.367831 -0.928964 0.0415491
    outer loop
      vertex 1.17089 2.48827 3
      vertex 1.38378 2.94069 15
      vertex 0.849796 2.61541 3
    endloop
  endfacet
  facet normal -0.481333 -0.875553 0.0415492
    outer loop
      vertex 1.47352 2.3219 3
      vertex 1.74144 2.74407 15
      vertex 1.17089 2.48827 3
    endloop
  endfacet
  facet normal -0.481328 -0.875555 0.0415491
    outer loop
      vertex 1.74144 2.74407 15
      vertex 1.38378 2.94069 15
      vertex 1.17089 2.48827 3
    endloop
  endfacet
  facet normal -0.587266 -0.808327 0.0415486
    outer loop
      vertex 1.75292 2.11891 3
      vertex 2.07163 2.50417 15
      vertex 1.47352 2.3219 3
    endloop
  endfacet
  facet normal -0.683972 -0.728324 0.0415486
    outer loop
      vertex 2.00466 1.8825 3
      vertex 2.07163 2.50417 15
      vertex 1.75292 2.11891 3
    endloop
  endfacet
  facet normal -0.84361 -0.535346 0.0415478
    outer loop
      vertex 2.40984 1.32482 3
      vertex 2.6293 1.9103 15
      vertex 2.2248 1.61641 3
    endloop
  endfacet
  facet normal -0.904048 0.425407 0.0415486
    outer loop
      vertex 3.02177 -1.1964 15
      vertex 2.55688 -1.01234 3
      vertex 2.40984 -1.32482 3
    endloop
  endfacet
  facet normal -0.683972 0.728324 0.0415486
    outer loop
      vertex 2.07163 -2.50417 15
      vertex 2.00466 -1.8825 3
      vertex 1.75292 -2.11891 3
    endloop
  endfacet
  facet normal -0.125215 0.991259 0.0415491
    outer loop
      vertex 0.204069 -3.24359 15
      vertex 0.515298 -2.70129 3
      vertex 0.172673 -2.74457 3
    endloop
  endfacet
  facet normal 0.248478 0.967746 0.0415478
    outer loop
      vertex -0.608989 -3.19243 15
      vertex -0.849796 -2.61541 3
      vertex -1.0043 -3.09093 15
    endloop
  endfacet
  facet normal 0.125215 0.991259 0.0415491
    outer loop
      vertex -0.204069 -3.24359 15
      vertex -0.172673 -2.74457 3
      vertex -0.515298 -2.70129 3
    endloop
  endfacet
  facet normal 0.587282 0.808315 0.0415493
    outer loop
      vertex -1.74144 -2.74407 15
      vertex -1.47352 -2.3219 3
      vertex -2.07163 -2.50417 15
    endloop
  endfacet
  facet normal 0.587266 0.808327 0.0415486
    outer loop
      vertex -1.47352 -2.3219 3
      vertex -1.75292 -2.11891 3
      vertex -2.07163 -2.50417 15
    endloop
  endfacet
  facet normal 0.843588 0.535382 0.0415491
    outer loop
      vertex -2.6293 -1.9103 15
      vertex -2.40984 -1.32482 3
      vertex -2.848 -1.5657 15
    endloop
  endfacet
  facet normal 0.904055 0.425393 0.0415491
    outer loop
      vertex -2.848 -1.5657 15
      vertex -2.40984 -1.32482 3
      vertex -3.02177 -1.1964 15
    endloop
  endfacet
  facet normal 0.125241 -0.991256 0.0415483
    outer loop
      vertex -0.515298 2.70129 3
      vertex -0.204069 3.24359 15
      vertex -0.608989 3.19243 15
    endloop
  endfacet
  facet normal 0.125215 -0.991259 0.0415491
    outer loop
      vertex -0.172673 2.74457 3
      vertex -0.204069 3.24359 15
      vertex -0.515298 2.70129 3
    endloop
  endfacet
  facet normal 0.481333 -0.875553 0.0415492
    outer loop
      vertex -1.47352 2.3219 3
      vertex -1.17089 2.48827 3
      vertex -1.74144 2.74407 15
    endloop
  endfacet
  facet normal 0.367831 -0.928964 0.0415491
    outer loop
      vertex -1.17089 2.48827 3
      vertex -0.849796 2.61541 3
      vertex -1.38378 2.94069 15
    endloop
  endfacet
  facet normal 0.76986 -0.636858 0.0415492
    outer loop
      vertex -2.00466 1.8825 3
      vertex -2.36915 2.22478 15
      vertex -2.6293 1.9103 15
    endloop
  endfacet
  facet normal 0.683956 -0.728339 0.0415493
    outer loop
      vertex -2.00466 1.8825 3
      vertex -2.07163 2.50417 15
      vertex -2.36915 2.22478 15
    endloop
  endfacet
  facet normal 0.843588 -0.535382 0.0415491
    outer loop
      vertex -2.40984 1.32482 3
      vertex -2.6293 1.9103 15
      vertex -2.848 1.5657 15
    endloop
  endfacet
  facet normal 0.904055 -0.425393 0.0415491
    outer loop
      vertex -2.40984 1.32482 3
      vertex -2.848 1.5657 15
      vertex -3.02177 1.1964 15
    endloop
  endfacet
  facet normal -0.843588 -0.535382 0.0415491
    outer loop
      vertex 2.848 1.5657 15
      vertex 2.6293 1.9103 15
      vertex 2.40984 1.32482 3
    endloop
  endfacet
  facet normal -0.904055 -0.425393 0.0415491
    outer loop
      vertex 3.02177 1.1964 15
      vertex 2.848 1.5657 15
      vertex 2.40984 1.32482 3
    endloop
  endfacet
  facet normal 0.481328 -0.875555 0.0415491
    outer loop
      vertex -1.17089 2.48827 3
      vertex -1.38378 2.94069 15
      vertex -1.74144 2.74407 15
    endloop
  endfacet
  facet normal 0.248463 -0.96775 0.0415483
    outer loop
      vertex -0.515298 2.70129 3
      vertex -0.608989 3.19243 15
      vertex -0.849796 2.61541 3
    endloop
  endfacet
  facet normal 0.84361 -0.535346 0.0415478
    outer loop
      vertex -2.40984 1.32482 3
      vertex -2.2248 1.61641 3
      vertex -2.6293 1.9103 15
    endloop
  endfacet
  facet normal 0.769832 -0.636893 0.0415478
    outer loop
      vertex -2.2248 1.61641 3
      vertex -2.00466 1.8825 3
      vertex -2.6293 1.9103 15
    endloop
  endfacet
  facet normal 0.367792 -0.928979 0.0415478
    outer loop
      vertex -0.849796 2.61541 3
      vertex -1.0043 3.09093 15
      vertex -1.38378 2.94069 15
    endloop
  endfacet
endsolid OpenSCAD_Model
